# xmcd CD database file
#
# Track frame offsets:
#	150
#	19897
#	39720
#
# Disc length: 821 seconds
#
# Revision: 10
# Processed by: cddbd v1.5.1PL2 Copyright (c) Steve Scherf et al.
# Submitted via: CDex 1.51
#
DISCID=1f033303
DTITLE=元　ちとせ - この街
DYEAR=2002
DGENRE=Pop
TTITLE0=この街
TTITLE1=ハミングバード
TTITLE2=凛とする (Strings Version)
EXTD=YEAR: 2002
EXTT0=
EXTT1=
EXTT2=
PLAYORDER=
